HIERARCHY
ROOT Hips
{
	OFFSET 0.0000 0.0000 0.0000
	CHANNELS 6 Xposition Yposition Zposition Zrotation Xrotation Yrotation
	JOINT Ab
	{
		OFFSET -0.0000 8.0846 -0.0000
		CHANNELS 3 Zrotation Xrotation Yrotation
		JOINT Chest
		{
			OFFSET -0.0000 25.0068 -0.0000
			CHANNELS 3 Zrotation Xrotation Yrotation
			JOINT Neck
			{
				OFFSET -0.0000 25.0068 0.0000
				CHANNELS 3 Zrotation Xrotation Yrotation
				JOINT Head
				{
					OFFSET -0.0000 10.7556 0.0000
					CHANNELS 3 Zrotation Xrotation Yrotation
					End Site
					{
						OFFSET -0.0000 16.6222 0.0000
					}
				}
			}
			JOINT LeftCollar
			{
				OFFSET -0.0000 25.0068 0.0000
				CHANNELS 3 Zrotation Xrotation Yrotation
				JOINT LeftShoulder
				{
					OFFSET 19.5556 -0.0000 0.0000
					CHANNELS 3 Zrotation Xrotation Yrotation
					JOINT LeftElbow
					{
						OFFSET 27.1828 0.0000 0.0000
						CHANNELS 3 Zrotation Xrotation Yrotation
						JOINT LeftWrist
						{
							OFFSET 23.3157 0.0000 0.0000
							CHANNELS 3 Zrotation Xrotation Yrotation
							End Site
							{
								OFFSET 0.0000 -14.6667 0.0000
							}
						}
					}
				}
			}
			JOINT RightCollar
			{
				OFFSET -0.0000 25.0068 0.0000
				CHANNELS 3 Zrotation Xrotation Yrotation
				JOINT RightShoulder
				{
					OFFSET -19.5556 0.0000 0.0000
					CHANNELS 3 Zrotation Xrotation Yrotation
					JOINT RightElbow
					{
						OFFSET -27.1828 0.0000 0.0000
						CHANNELS 3 Zrotation Xrotation Yrotation
						JOINT RightWrist
						{
							OFFSET -23.3157 0.0000 0.0000
							CHANNELS 3 Zrotation Xrotation Yrotation
							End Site
							{
								OFFSET -0.0000 -14.6667 0.0000
							}
						}
					}
				}
			}
		}
	}
	JOINT LeftHip
	{
		OFFSET 11.7333 0.0000 0.0000
		CHANNELS 3 Zrotation Xrotation Yrotation
		JOINT LeftKnee
		{
			OFFSET -0.0000 -40.8688 0.0000
			CHANNELS 3 Zrotation Xrotation Yrotation
			JOINT LeftAnkle
			{
				OFFSET -0.0000 -44.4337 0.0000
				CHANNELS 3 Zrotation Xrotation Yrotation
				End Site
				{
					OFFSET -0.0000 -4.8889 16.6222
				}
			}
		}
	}
	JOINT RightHip
	{
		OFFSET -11.7333 0.0000 0.0000
		CHANNELS 3 Zrotation Xrotation Yrotation
		JOINT RightKnee
		{
			OFFSET -0.0000 -40.8688 0.0000
			CHANNELS 3 Zrotation Xrotation Yrotation
			JOINT RightAnkle
			{
				OFFSET -0.0000 -44.4337 0.0000
				CHANNELS 3 Zrotation Xrotation Yrotation
				End Site
				{
					OFFSET -0.0000 -4.8889 16.6222
				}
			}
		}
	}
}
MOTION
Frames: 21
Frame Time: 0.010000
-3.1775 88.4802 190.1108 2.0425 0.6703 176.1482 0.9709 359.3786 358.2591 359.6869 10.8928 358.2861 0.7614 340.9085 1.0680 2.6554 6.0586 0.7939 338.2265 358.5118 7.6757 300.7923 29.5996 356.9890 13.8851 355.1811 322.1620 85.9219 0.8494 339.9844 21.9548 358.7017 353.2594 62.0592 46.6327 4.4967 336.7133 354.0619 28.1723 273.7195 353.4628 15.5411 3.6417 0.1796 356.1723 359.0392 10.1423 357.3906 353.5753 350.1692 22.3164 359.0532 353.6008 0.8811 358.8655 19.8923 8.2671 359.9243 342.8933 337.4894 
-3.1828 88.4842 190.0847 2.0413 0.7059 176.1515 0.9398 359.4282 358.2530 359.7026 10.8860 358.2778 0.6727 340.8551 1.0209 2.7236 6.1681 0.7564 338.2156 358.5385 7.7061 300.7996 29.5507 356.9825 13.8738 355.2400 322.1950 85.7907 0.8110 339.9798 21.9703 358.6999 353.2812 62.0210 46.6389 4.5140 336.7238 354.0992 28.1874 273.7083 353.5376 15.6997 3.6413 0.2666 355.8389 358.9764 10.0728 357.6566 353.6305 350.1741 22.3791 359.0425 353.6701 0.9047 358.8766 19.8621 8.2296 359.8148 342.9366 337.5066 
-3.1932 88.4864 190.0812 2.0370 0.6507 176.1652 0.9129 359.4026 358.2392 359.7308 10.8762 358.2613 0.4967 340.7323 0.9145 2.8125 6.3781 0.6658 338.2187 358.5107 7.6923 300.7495 29.4894 357.0215 13.8831 355.1894 322.1509 85.8446 0.8130 339.9530 21.9654 358.6723 353.3089 62.0122 46.6615 4.5109 336.6759 354.0737 28.1641 273.7516 353.5135 15.6444 3.6412 0.1700 355.7812 358.9471 10.1581 357.6940 353.6340 350.1150 22.3620 359.0249 353.6207 0.9192 358.8963 19.8614 8.1723 359.8995 342.8726 337.5438 
-3.2064 88.4878 190.0626 2.0210 0.6414 176.1662 0.8726 359.4073 358.2377 359.7384 10.8922 358.2594 0.3844 340.6189 0.8433 2.8882 6.5355 0.6098 338.2313 358.5406 7.7231 300.7365 29.4079 357.0096 13.8351 355.2620 322.1495 85.8003 0.8192 339.9173 21.9714 358.7061 353.3401 61.9583 46.6293 4.5514 336.7973 354.1159 28.1606 273.6441 353.5171 15.7044 3.6241 0.1453 355.7438 358.9172 10.2152 357.6836 353.6540 350.0739 22.4228 358.9892 353.6265 0.9445 358.9117 19.8656 8.2364 359.8919 342.8436 337.4898 
-3.2214 88.4891 190.0582 2.0118 0.5990 176.2031 0.8202 359.4101 358.2352 359.7699 10.8660 358.2530 0.1492 340.5005 0.6734 3.0946 6.7431 0.4535 338.2464 358.5227 7.6924 300.6847 29.3014 357.0514 13.8375 355.2167 322.0546 85.6854 0.9290 339.7479 21.9627 358.6872 353.3334 61.9472 46.6660 4.5878 336.7093 354.0915 28.1460 273.7522 353.5372 15.7084 3.6122 0.0340 355.7220 358.8942 10.3355 357.6790 353.6819 349.9777 22.4124 358.9536 353.5989 0.9192 358.9370 19.8500 8.1852 359.8884 342.8290 337.5511 
-3.2459 88.4899 190.0430 1.9830 0.5674 176.2101 0.7831 359.4046 358.2450 359.7472 10.8636 358.2668 0.0544 340.3998 0.5925 3.1893 6.9035 0.3872 338.2654 358.4971 7.7126 300.6661 29.3587 357.0643 13.8960 355.2147 322.0530 85.6330 0.9219 339.8274 21.9802 358.7196 353.3298 61.8760 46.6940 4.6659 336.7759 354.1045 28.0845 273.7142 353.5071 15.7374 3.5684 359.9583 355.7229 358.8972 10.4325 357.5771 353.7508 349.8993 22.4754 358.8910 353.5786 0.8906 358.9543 19.8449 8.1956 359.8642 342.8316 337.5915 
-3.2724 88.4906 190.0336 1.9516 0.5258 176.2309 0.7121 359.4255 358.2618 359.7782 10.7977 358.2806 359.7638 340.3001 0.4038 3.4085 7.1222 0.2203 338.2469 358.5228 7.6526 300.6252 29.1969 357.1493 13.7672 355.2646 322.0659 85.7100 0.8863 339.6791 21.9795 358.6852 353.3174 61.8712 46.7767 4.6544 336.6383 354.0703 28.0785 273.8395 353.5415 15.6283 3.5453 359.8463 355.6537 358.8292 10.5756 357.5380 353.7813 349.8209 22.5630 358.8102 353.5645 0.9356 359.0312 19.8156 8.1420 0.1556 342.7465 337.6547 
-3.3032 88.4944 190.0231 1.9264 0.5004 176.2583 0.6694 359.4624 358.2451 359.7899 10.7465 358.2622 359.4465 340.1943 0.2248 3.7252 7.3247 0.0665 338.2519 358.5235 7.6295 300.5716 29.1057 357.1787 13.7310 355.2426 322.0525 85.7572 0.8584 339.6300 21.9853 358.7044 353.3267 61.8191 46.6959 4.6749 336.7508 354.0983 28.0841 273.8889 353.5512 15.7665 3.5121 359.7190 355.7699 358.8120 10.7661 357.4168 353.8419 349.7262 22.5556 358.7477 353.5701 0.9513 359.0648 19.7813 8.0864 0.1541 342.7173 337.6842 
-3.3400 88.4980 190.0128 1.8979 0.4514 176.3059 0.6519 359.4937 358.2133 359.7483 10.6610 358.2339 359.1841 340.0703 0.0615 3.9740 7.5701 359.9221 338.2796 358.5554 7.5660 300.4805 28.6873 357.2918 13.4957 355.3755 321.9739 85.8813 0.8169 339.3355 22.0153 358.7408 353.3353 61.7220 46.6766 4.7488 336.8215 354.0910 28.0733 273.9474 353.5260 15.8074 3.4755 359.5760 355.7285 358.7698 10.9340 357.3426 353.8748 349.6394 22.6379 358.6699 353.5673 0.9827 359.1120 19.7247 8.0386 0.6395 342.4300 337.5604 
-3.3906 88.4996 189.9979 1.8528 0.4148 176.3509 0.6365 359.5251 358.1751 359.6854 10.5942 358.2007 358.7498 340.0499 359.7925 4.4452 7.6030 359.7437 338.3047 358.5388 7.5342 300.4016 28.4423 357.3965 13.4005 355.3883 321.8437 85.9674 0.8904 339.2093 22.0258 358.7051 353.3912 61.7248 46.7376 4.7161 336.7014 354.0721 28.1001 274.1260 353.5606 15.8154 3.4058 359.4500 355.7147 358.7504 11.1045 357.2285 353.9068 349.5178 22.7074 358.5647 353.5702 0.9721 359.1618 19.6781 7.9939 0.1886 342.6510 337.7245 
-3.4433 88.5049 189.9964 1.8085 0.3277 176.4107 0.6113 359.5368 358.1279 359.6612 10.4990 358.1583 358.3342 339.8057 359.6126 4.8455 8.0170 359.5322 338.3103 358.5677 7.5362 300.3357 28.3350 357.4524 13.3123 355.4070 321.8769 86.0839 0.8331 339.1461 22.0376 358.7382 353.4257 61.6129 46.7303 4.7752 336.8418 354.1149 28.0696 274.1648 353.4356 15.8980 3.3430 359.2283 355.6770 358.7093 11.3277 357.1817 353.9508 349.4064 22.7505 358.4619 353.5202 1.0035 359.2275 19.6268 7.8565 0.2465 342.5998 337.7758 
-3.5031 88.5064 189.9876 1.7686 0.2501 176.4715 0.5599 359.5216 358.1140 359.6503 10.4589 358.1451 357.8920 339.5166 359.3289 5.2174 8.5072 359.3125 338.3098 358.5331 7.6647 300.3323 28.7679 357.3350 13.6111 355.2536 322.0735 85.9833 0.6830 339.3925 22.0259 358.7196 353.4483 61.4973 46.8077 4.8585 336.7848 354.1234 28.0925 274.2748 353.3362 15.9029 3.2844 359.0416 355.6691 358.6697 11.5223 357.0524 354.0059 349.2939 22.8219 358.3678 353.5000 1.0186 359.2647 19.5468 7.7886 0.2333 342.5968 337.7966 
-3.5742 88.5101 189.9689 1.7288 0.1857 176.5251 0.4772 359.5038 358.1381 359.6763 10.4689 358.1661 357.3339 339.0503 358.9722 5.7103 9.2401 358.9881 338.2986 358.5516 7.4884 300.2447 28.1297 357.4856 13.2220 355.4695 321.9620 86.2830 0.6614 339.0192 22.0063 358.6774 353.3843 61.3170 46.8552 5.0102 336.8972 354.1240 28.2372 273.7622 354.1246 16.0549 3.2111 358.8225 356.0084 358.7072 11.8280 356.5574 354.0656 349.1396 22.9033 358.2594 353.5156 1.1176 359.3398 19.4338 7.6108 0.3185 342.5791 337.8463 
-3.6541 88.5137 189.9461 1.6944 0.1354 176.5586 0.4568 359.5276 358.1367 359.6477 10.4214 358.1684 356.7213 338.7455 358.6434 6.3280 9.7683 358.7084 338.2871 358.5700 7.4643 300.2224 28.2061 357.4983 13.2472 355.4143 322.0176 86.3499 0.5691 339.0637 22.0252 358.7033 353.3335 61.0974 46.9178 5.1542 336.9330 354.1747 28.1084 274.4110 353.1192 16.0619 3.1235 358.6874 355.9443 358.6846 11.9934 356.6199 354.1599 349.0528 22.9036 358.1653 353.5235 1.1432 358.9968 19.3486 9.7575 0.8841 343.1472 336.7156 
-3.7366 88.5167 189.9393 1.6834 0.0259 176.6138 0.4770 359.5320 358.1208 359.5793 10.3258 358.1578 356.5876 338.6476 358.5404 6.5245 9.8786 358.6118 338.2856 358.5352 7.4697 300.2128 28.2439 357.5282 13.3324 355.4041 321.9814 86.3207 0.5987 339.1858 22.0531 358.7282 353.3411 60.9561 46.9886 5.2186 336.9276 354.1270 28.1905 274.4882 353.2031 16.1456 3.0888 358.4925 355.8234 358.6117 12.1302 356.6200 354.2978 349.0149 23.0455 358.1023 353.4777 1.1492 359.0034 19.2476 9.6937 0.9817 343.1247 336.7382 
-3.8279 88.5208 189.9182 1.6526 359.9457 176.6245 0.4448 359.5456 358.1302 359.5682 10.2535 358.1686 356.4864 338.5631 358.4718 6.6231 9.9522 358.5603 338.2626 358.5322 7.4923 300.1550 28.2387 357.5894 13.3396 355.3630 321.9948 86.4038 0.5630 339.2103 22.0288 358.6912 353.3638 60.8275 47.0392 5.2784 336.9048 354.0924 28.2853 274.6182 353.1891 16.3455 3.0170 358.4337 355.4220 358.4980 12.1067 357.0179 354.3424 349.0065 23.0545 358.0131 353.4541 1.1701 359.0138 19.1693 9.5904 1.0363 343.1139 336.8126 
-3.9266 88.5253 189.8949 1.6330 359.8647 176.6319 0.4092 359.5493 358.1870 359.5441 10.2053 358.2283 356.4719 338.4504 358.3993 6.6173 10.0779 358.4789 338.2438 358.5643 7.4885 300.1555 28.2533 357.5690 13.3317 355.3691 322.0962 86.5372 0.4366 339.2485 22.0056 358.7284 353.3447 60.6810 47.1171 5.3976 336.9902 354.0992 28.3262 274.6987 353.1623 16.4670 2.9368 358.3131 355.3957 358.4918 12.2039 357.0220 354.3993 348.9471 23.0555 357.9368 353.4394 1.2193 359.0202 19.0662 9.5225 1.0931 343.1250 336.8258 
-4.0329 88.5296 189.8475 1.6228 359.8185 176.6346 0.4112 359.5570 358.2036 359.5020 10.1930 358.2474 356.2262 338.3474 358.2020 6.9008 10.1234 358.3000 338.2340 358.6029 7.3724 300.0951 27.8287 357.6592 13.0444 355.5309 322.0261 87.0789 0.2494 339.1947 22.0044 358.7004 353.2909 60.5235 47.1810 5.5366 336.9663 354.1088 28.3922 274.6631 353.1536 16.8498 2.8652 358.3057 355.3726 358.4716 12.1872 357.0372 354.4590 348.9181 23.0448 357.8638 353.5053 1.2414 359.0248 18.9089 9.3639 1.1489 343.1300 336.9235 
-4.1561 88.5323 189.8255 1.5946 359.6861 176.6337 0.4541 359.5381 358.1946 359.3847 10.0696 358.2483 356.1084 338.2393 358.1364 7.0682 10.3190 358.2439 338.2490 358.5703 7.3833 300.0286 27.8095 357.7371 13.1148 355.4407 322.0042 87.0667 0.2493 339.1784 22.0291 358.7320 353.3620 60.4089 47.1686 5.5140 337.0214 354.0935 28.4827 274.8019 353.1387 16.9051 2.7605 358.1807 355.3449 358.4684 12.1948 357.0071 354.5097 348.8693 23.1117 357.7629 353.4310 1.2033 358.9921 18.8140 9.4178 1.2556 343.1309 336.9670 
-4.2890 88.5359 189.7849 1.5692 359.5969 176.6160 0.4296 359.5243 358.2556 359.3497 10.0151 358.3128 355.9427 338.0654 358.0953 7.2851 10.6450 358.2072 338.2100 358.5307 7.4607 300.0448 28.0731 357.7502 13.3204 355.3602 322.0932 86.9657 0.1562 339.3610 21.9900 358.7166 353.3986 60.2959 47.2985 5.5704 336.8691 354.0431 28.5148 275.0124 353.1047 16.9133 2.6646 358.2362 354.5767 358.2999 11.9627 357.7182 354.5766 348.9147 23.2125 357.6571 353.4238 1.2102 358.9936 18.6862 9.2981 1.3805 343.1481 337.0713 
-4.4307 88.5333 189.7581 1.5677 359.4875 176.6086 0.5179 359.5525 358.2788 359.2016 9.8801 358.3462 355.9146 338.0077 358.0474 7.3052 10.7390 358.1506 338.2362 358.5541 7.4691 299.9926 27.8962 357.7870 13.2369 355.4809 322.1439 87.0258 0.0481 339.2546 22.0201 358.7413 353.3996 60.1284 47.4125 5.6271 336.3441 353.8433 28.5902 276.3284 353.1715 15.1433 2.5738 358.1343 354.6417 358.3161 11.9852 357.6310 354.6054 348.8648 23.2250 357.5716 353.3566 1.1869 358.9827 18.6302 9.2655 1.3730 343.1403 337.1161 
